<svg width="442" height="442" xmlns="http://www.w3.org/2000/svg" xmlns:xlink="http://www.w3.org/1999/xlink" overflow="hidden"><defs><clipPath id="clip0"><rect x="524" y="40" width="442" height="442"/></clipPath><clipPath id="clip1"><path d="M589.07 417.13C503.062 331.123 503.062 191.677 589.07 105.67 675.077 19.6621 814.523 19.6621 900.53 105.67 986.538 191.677 986.538 331.123 900.53 417.13 814.523 503.138 675.077 503.138 589.07 417.13Z" fill-rule="evenodd" clip-rule="evenodd"/></clipPath><clipPath id="clip2"><path d="M433.339 261.4 744.8-50.0607 1056.26 261.4 744.8 572.86Z" fill-rule="evenodd" clip-rule="evenodd"/></clipPath><clipPath id="clip3"><path d="M433.339 261.4 744.8-50.0607 1056.26 261.4 744.8 572.86Z" fill-rule="evenodd" clip-rule="evenodd"/></clipPath></defs><g clip-path="url(#clip0)" transform="translate(-524 -40)"><g clip-path="url(#clip1)"><g clip-path="url(#clip2)"><g clip-path="url(#clip3)"><path d="M739.648 236.003C736.183 239.468 734.275 244.075 734.275 248.981L734.275 267.332C734.275 272.237 736.183 276.844 739.648 280.31 743.113 283.775 747.72 285.682 752.626 285.682 762.437 285.682 770.976 277.143 770.976 267.332L770.976 248.982C770.976 244.076 769.068 239.469 765.603 236.004 762.138 232.539 757.531 230.631 752.625 230.631 747.72 230.63 743.113 232.538 739.648 236.003Z" fill="#FF5959"/><path d="M840.471 136.037C819.33 151.26 790.39 172.127 744.813 172.127 699.237 172.127 670.296 151.26 649.156 136.037 640.305 129.652 633.518 124.759 629.274 123.397L613.39 133.467C543.57 205.155 544.051 320.201 615.025 391.175 686.583 462.733 803.017 462.733 874.575 391.175 946.133 319.617 946.133 203.183 874.575 131.625 872.148 129.198 869.5 127.07 866.931 124.838 861.208 121.19 856.757 124.292 840.471 136.037ZM694.888 301.345C693.227 303.006 690.931 304.031 688.399 304.044 683.338 304.044 679.224 299.93 679.224 294.868L679.224 267.33 642.524 267.33 642.524 294.868C642.524 297.412 641.486 299.696 639.825 301.357 638.164 303.019 635.867 304.044 633.336 304.057 628.275 304.057 624.161 299.942 624.161 294.881L624.161 221.48C624.161 216.419 628.275 212.305 633.336 212.305 638.397 212.305 642.511 216.419 642.511 221.48L642.511 249.019 679.211 249.019 679.211 221.48C679.211 216.419 683.325 212.305 688.387 212.305 693.448 212.305 697.562 216.419 697.562 221.48L697.562 294.907C697.562 297.4 696.55 299.683 694.888 301.345ZM778.58 293.286C771.65 300.216 762.423 304.044 752.625 304.031 742.827 304.044 733.613 300.228 726.671 293.286 719.741 286.356 715.925 277.142 715.925 267.331L715.925 248.98C715.925 229.358 733.029 212.254 752.626 212.28 762.424 212.267 771.651 216.095 778.581 223.025 785.511 229.955 789.339 239.182 789.326 248.98L789.326 267.33C789.339 277.129 785.51 286.356 778.58 293.286ZM871.928 221.455C871.928 223.999 870.89 226.283 869.229 227.944 867.568 229.605 865.271 230.63 862.74 230.643L844.389 230.643 844.389 294.882C844.389 297.426 843.352 299.709 841.69 301.371 840.029 303.032 837.733 304.057 835.201 304.07 830.14 304.07 826.026 299.956 826.026 294.895L826.026 230.656 807.675 230.656C802.614 230.656 798.5 226.542 798.5 221.481 798.5 216.419 802.614 212.305 807.675 212.305L835.187 212.305C835.187 212.305 835.2 212.318 835.213 212.305L862.725 212.305C867.814 212.28 871.928 216.394 871.928 221.455Z" fill="#FF5959"/><path d="M889.032 95.8847C878.053 87.4229 866.464 81.389 854.382 77.483 854.266 77.4441 854.149 77.4307 854.032 77.3918 826.844 68.7098 797.528 69.4234 768.796 70.1241 760.84 70.3188 752.808 70.5135 744.813 70.5135 736.754 70.5269 728.709 70.3188 720.701 70.1241 690.32 69.3844 659.304 68.8917 630.857 79.2471 630.507 79.4163 630.104 79.3767 629.78 79.5975L629.391 79.8567C619.178 83.7372 609.315 89.1098 599.945 96.4292 596.415 98.9993 592.807 101.932 589.07 105.67 503.197 191.542 503.197 331.258 589.07 417.13 674.942 503.003 814.658 503.003 900.53 417.13 986.403 331.258 986.403 191.542 900.53 105.67 896.572 101.711 892.744 98.5315 889.032 95.8847ZM887.553 404.153C808.844 482.862 680.756 482.862 602.047 404.153 525.103 327.209 523.611 203.235 597.09 124.176 597.777 122.502 598.829 120.957 600.464 119.919L601.49 119.258 603.567 117.934 622.28 106.072 624.279 104.8C624.914 104.71 625.537 104.969 626.16 104.943 626.536 104.904 626.848 104.645 627.225 104.632 628.847 104.645 630.431 105.06 632.001 105.384 632.507 105.501 633 105.475 633.519 105.631 641.033 107.669 648.716 113.094 659.863 121.126 680.03 135.662 705.128 153.752 744.788 153.752 784.447 153.752 809.546 135.661 829.714 121.126 836.358 116.35 841.951 112.393 847.129 109.498 849.673 108.071 852.113 106.981 854.488 106.164 854.799 106.06 855.098 105.995 855.408 105.891 857.55 105.229 859.704 104.892 861.82 104.827 862.144 104.814 862.468 104.827 862.78 104.827 864.946 104.866 867.179 105.281 869.424 106.047 869.671 106.137 869.904 106.19 870.151 106.28 875.394 108.279 880.961 112.055 887.553 118.648 966.262 197.356 966.262 325.444 887.553 404.153Z" fill="#FF5959"/></g></g></g></g></svg>