<svg viewBox="0 0 297.773 297.773" xmlns="http://www.w3.org/2000/svg" xmlns:xlink="http://www.w3.org/1999/xlink" id="Capa_1" overflow="hidden"><g><path d="M148.886 54.552C96.87 54.552 54.553 96.87 54.553 148.886 54.553 200.902 96.87 243.219 148.886 243.219 200.902 243.219 243.22 200.902 243.22 148.886 243.22 96.87 200.902 54.552 148.886 54.552ZM114.458 167.875C114.458 170.752 112.117 173.092 109.249 173.092L105.623 173.092C103.728 173.092 101.987 172.066 101.076 170.404L91.864 153.777C88.899 148.436 85.621 141.968 83.173 136.108L82.949 136.18C83.244 142.781 83.405 149.838 83.405 158.013L83.405 167.884C83.405 170.752 81.082 173.092 78.206 173.092 75.338 173.092 73.024 170.752 73.024 167.884L73.024 128.236C73.024 125.36 75.337 123.029 78.206 123.029L83.19 123.029C85.067 123.029 86.799 124.039 87.728 125.673L96.618 141.36C99.592 146.631 102.558 152.885 104.783 158.512L105.014 158.512C104.264 151.937 104.05 145.157 104.05 137.661L104.05 128.236C104.05 125.36 106.372 123.029 109.248 123.029 112.116 123.029 114.457 125.36 114.457 128.236L114.457 167.875ZM151.567 173.091 128.921 173.091C126.358 173.091 124.285 171.001 124.285 168.446L124.285 127.673C124.285 125.118 126.357 123.028 128.921 123.028L150.532 123.028C153.095 123.028 155.159 125.118 155.159 127.673 155.159 130.228 153.096 132.319 150.532 132.319L136.854 132.319C136.183 132.319 135.648 132.854 135.648 133.533L135.648 141.483C135.648 142.164 136.183 142.699 136.854 142.699L149.467 142.699C151.995 142.699 154.05 144.755 154.05 147.291 154.05 149.846 151.978 151.936 149.423 151.936L136.854 151.936C136.183 151.936 135.648 152.474 135.648 153.134L135.648 162.586C135.648 163.255 136.183 163.781 136.854 163.781L151.567 163.781C154.122 163.781 156.195 165.873 156.195 168.446 156.195 171.002 154.122 173.091 151.567 173.091ZM221.811 125.146C222.839 126.475 223.206 128.209 222.786 129.835L213.101 167.33C212.226 170.715 209.17 173.091 205.677 173.091 202.005 173.091 198.861 170.484 198.156 166.901L195.128 151.544C194.163 146.487 193.35 141.807 192.77 136.089L192.609 136.089C191.724 141.754 190.903 146.487 189.714 151.544L186.302 166.982C185.525 170.546 182.353 173.092 178.708 173.092 175.099 173.092 171.973 170.61 171.141 167.107L162.368 130.131C161.948 128.425 162.359 126.603 163.449 125.226 164.54 123.833 166.21 123.03 167.97 123.03 170.758 123.03 173.142 125.031 173.652 127.763L176.564 143.683C177.69 149.616 178.726 156.082 179.548 161.14L179.691 161.14C180.504 155.69 181.693 149.704 182.961 143.522L185.989 128.873C186.686 125.477 189.679 123.039 193.154 123.039 196.674 123.039 199.694 125.531 200.345 128.979L203.221 144.13C204.348 149.99 205.16 155.35 205.902 160.924L206.046 160.924C206.796 155.35 207.903 149.473 208.939 143.522L212.155 127.425C212.665 124.87 214.898 123.029 217.498 123.029 219.194 123.029 220.785 123.814 221.811 125.146Z" fill="#FFB830"/><path d="M290.903 131.693 275.258 115.24C271.852 111.658 270.25 106.727 270.901 101.827L273.887 79.322C275.635 66.144 266.746 53.911 253.674 51.502L231.346 47.387C226.485 46.491 222.289 43.445 219.936 39.098L209.125 19.135C202.793 7.447 188.41 2.775 176.42 8.509L155.938 18.305C151.479 20.438 146.293 20.438 141.834 18.305L121.354 8.509C109.362 2.775 94.979 7.447 88.649 19.135L77.837 39.097C75.483 43.444 71.288 46.49 66.427 47.386L44.099 51.5C31.029 53.91 22.138 66.144 23.886 79.321L26.874 101.826C27.522 106.726 25.921 111.657 22.515 115.239L6.87 131.693C-2.29 141.325-2.29 156.446 6.87 166.08L22.515 182.534C25.921 186.115 27.523 191.046 26.874 195.945L23.886 218.452C22.138 231.63 31.028 243.862 44.099 246.272L66.429 250.387C71.288 251.283 75.484 254.329 77.837 258.676L88.649 278.638C94.979 290.326 109.362 294.998 121.352 289.265L141.834 279.469C146.293 277.336 151.479 277.336 155.938 279.469L176.42 289.265C188.41 294.998 202.793 290.326 209.125 278.638L219.936 258.676C222.29 254.329 226.485 251.282 231.346 250.387L253.676 246.272C266.746 243.862 275.635 231.628 273.887 218.452L270.901 195.945C270.251 191.046 271.852 186.115 275.258 182.534L290.903 166.08C300.063 156.446 300.063 141.325 290.903 131.693ZM148.887 262.996C85.866 262.996 34.776 211.908 34.776 148.887 34.776 85.866 85.866 34.778 148.887 34.778 211.907 34.778 262.996 85.867 262.996 148.887 262.997 211.908 211.907 262.996 148.887 262.996Z" fill="#FFB830"/></g><g></g><g></g><g></g><g></g><g></g><g></g><g></g><g></g><g></g><g></g><g></g><g></g><g></g><g></g><g></g></svg>