<svg width="875" height="770" xmlns="http://www.w3.org/2000/svg" xmlns:xlink="http://www.w3.org/1999/xlink"
  overflow="hidden">
  <defs>
    <clipPath id="clip0">
      <rect x="263" y="-13" width="875" height="770" />
    </clipPath>
    <clipPath id="clip1">
      <rect x="264" y="-12" width="874" height="768" />
    </clipPath>
    <clipPath id="clip2">
      <rect x="264" y="-12" width="874" height="769" />
    </clipPath>
    <clipPath id="clip3">
      <rect x="264" y="-65" width="874" height="875" />
    </clipPath>
  </defs>
  <g clip-path="url(#clip0)" transform="translate(-263 13)">
    <g clip-path="url(#clip1)">
      <g clip-path="url(#clip2)">
        <g clip-path="url(#clip3)">
          <path
            d="M762.865 54.6001 107.664 54.6001C48.8671 54.6001-0.0155269 103.484-0.0155269 163.8L-0.0155269 709.801C-0.0155269 770.117 48.8686 819.001 107.649 819.001L762.85 819.001C823.166 819.001 872.05 770.117 872.05 709.801L872.05 163.8C872.065 103.484 824.631 54.6001 762.865 54.6001ZM189.565 163.8C234.797 163.8 271.465 200.468 271.465 245.7 271.465 290.933 236.316 327.6 189.565 327.6 142.813 327.6 107.664 290.933 107.664 245.7 107.664 200.468 145.85 163.8 189.565 163.8ZM761.159 695.468C756.381 704.341 747.168 709.801 737.101 709.801L139.93 709.801C129.656 709.801 120.257 704.035 115.599 694.871 110.94 685.714 111.819 674.72 117.875 666.411L237.312 502.611C242.458 495.495 250.648 491.401 259.35 491.401 268.052 491.401 276.269 495.565 281.412 502.617L336.797 578.563 495.99 341.223C501.126 332.207 509.657 327.6 518.701 327.6 527.744 327.6 536.36 332.159 541.411 339.757L759.811 667.358C765.425 675.676 765.936 686.425 761.159 695.468Z"
            fill="#FFFFFF" transform="matrix(1.00046 0 0 1 264 -64.5034)" />
        </g>
      </g>
    </g>
  </g>
</svg>